<svg width="320" height="79" viewBox="0 0 320 79" fill="none" xmlns="http://www.w3.org/2000/svg">
<path d="M301.045 39.098H305.17L298.393 30.161L304.679 22.599H300.75L295.938 28.885H294.956V22.598H291.911V39.098H294.956V31.83H296.036L301.045 39.098Z" fill="white"/>
<path d="M173.563 27.018C173.58 26.7728 173.535 26.5271 173.433 26.3038C173.33 26.0806 173.172 25.887 172.974 25.741C172.55 25.4192 172.032 25.2466 171.5 25.25H169.045V30.357H171.6C172.075 30.364 172.545 30.2631 172.975 30.062C173.179 29.9456 173.343 29.7715 173.448 29.5617C173.553 29.3519 173.593 29.1157 173.564 28.883L173.563 27.018ZM171.5 22.598C172.198 22.5995 172.892 22.6988 173.563 22.893C174.146 23.0675 174.682 23.3694 175.134 23.777C175.576 24.165 175.942 24.6311 176.214 25.152C176.504 25.7646 176.639 26.439 176.607 27.116V28.982C176.64 29.5962 176.504 30.2077 176.214 30.75C175.965 31.2585 175.594 31.6973 175.134 32.027C174.664 32.3849 174.131 32.6515 173.563 32.813C172.928 33.014 172.265 33.1136 171.599 33.108H169.045V39.198H166V22.598H171.5Z" fill="white"/>
<path d="M188.884 27.704C188.879 27.2933 188.778 26.8894 188.589 26.525C188.355 26.2065 188.092 25.9106 187.803 25.641C187.472 25.4192 187.107 25.2533 186.723 25.15C186.306 25.0355 185.878 24.9684 185.446 24.95H185.053C184.621 24.9684 184.193 25.0355 183.776 25.15C183.367 25.2713 182.971 25.4359 182.597 25.641C182.263 25.8628 181.992 26.1673 181.811 26.525C181.599 26.8804 181.497 27.2907 181.518 27.704V33.99C181.497 34.4035 181.6 34.8138 181.813 35.169C182.047 35.4875 182.31 35.7834 182.599 36.053C182.93 36.2748 183.294 36.4406 183.679 36.544C184.128 36.6655 184.589 36.7327 185.054 36.744H185.447C185.879 36.7331 186.309 36.6659 186.724 36.544C187.108 36.4406 187.473 36.2748 187.804 36.053C188.137 35.8219 188.409 35.5136 188.597 35.1546C188.785 34.7955 188.883 34.3963 188.884 33.991V27.704ZM187.804 22.695C188.564 22.8944 189.27 23.2637 189.867 23.775C190.458 24.2351 190.957 24.8015 191.34 25.445C191.741 26.1293 191.945 26.9111 191.929 27.704V33.99C191.928 34.801 191.761 35.6031 191.438 36.347C191.117 37.0038 190.646 37.5759 190.063 38.017C189.46 38.4982 188.754 38.8342 188.001 38.999C187.201 39.2253 186.377 39.3572 185.546 39.392H185.153C184.285 39.4134 183.42 39.2803 182.599 38.999C181.86 38.7924 181.162 38.4603 180.536 38.017C179.948 37.5807 179.476 37.0074 179.161 36.347C178.792 35.6185 178.623 34.8052 178.67 33.99V27.704C178.67 26.9246 178.838 26.1543 179.161 25.445C179.513 24.78 180.018 24.2078 180.634 23.775C181.255 23.3001 181.953 22.9348 182.697 22.695C183.495 22.4611 184.32 22.329 185.152 22.302H185.545C186.311 22.3454 187.069 22.4772 187.804 22.695Z" fill="white"/>
<path d="M197.331 22.598V36.446H204.206V39.098H194.286V22.598H197.331Z" fill="white"/>
<path d="M206.366 22.598H209.411V39.196H206.366V22.598Z" fill="white"/>
<path d="M211.571 25.25V22.598H224.437V25.25H219.428V39.098H216.482V25.25H211.571Z" fill="white"/>
<path d="M229.545 31.83V36.446H236.322V39.098H226.5V22.598H235.83V25.25H229.545V29.277H234.845V31.831L229.545 31.83Z" fill="white"/>
<path d="M244.67 25.054C244.238 25.0724 243.81 25.1395 243.393 25.254C243.008 25.3573 242.644 25.5232 242.313 25.745C242.009 25.9734 241.772 26.2786 241.626 26.629C241.414 26.9843 241.311 27.3945 241.331 27.808V34.094C241.283 34.4955 241.35 34.9022 241.524 35.2672C241.698 35.6322 241.971 35.9407 242.313 36.157C243.012 36.6166 243.833 36.8562 244.67 36.845C245.433 36.8501 246.193 36.7508 246.929 36.55C247.63 36.3484 248.271 35.9775 248.795 35.47L250.072 37.729C249.326 38.3833 248.458 38.8832 247.518 39.2C246.563 39.488 245.569 39.6206 244.572 39.593C243.735 39.6226 242.901 39.4891 242.116 39.2C241.4 39.0143 240.73 38.6796 240.152 38.218C239.591 37.7544 239.124 37.1875 238.777 36.548C238.454 35.8041 238.287 35.002 238.286 34.191V27.9C238.286 27.1206 238.454 26.3503 238.777 25.641C239.066 24.964 239.543 24.3843 240.152 23.971C240.75 23.5168 241.412 23.153 242.116 22.891C242.914 22.6571 243.739 22.525 244.571 22.498C245.162 22.4765 245.754 22.51 246.339 22.598C246.812 22.67 247.274 22.8021 247.714 22.991C248.127 23.1828 248.522 23.4128 248.893 23.678C249.31 23.9758 249.704 24.3041 250.072 24.66L248.501 26.723C248.01 26.2437 247.447 25.8458 246.831 25.544C246.177 25.1645 245.423 24.9932 244.67 25.053" fill="white"/>
<path d="M262.25 22.598H265.295V39.098H262.25V32.419H255.474V39.098H252.429V22.598H255.474V29.768H262.251L262.25 22.598Z" fill="white"/>
<path d="M279.436 22.598H282.088V39.098H277.963L271.186 26.036V39.098H268.536V22.598H272.465L279.436 35.955V22.598Z" fill="white"/>
<path d="M285.527 22.598H288.572V39.196H285.527V22.598Z" fill="white"/>
<path d="M314.991 32.813L312.83 25.643L310.669 32.813H314.991ZM314.696 22.5L319.996 39.2H316.853L315.674 35.271H309.884L308.705 39.2H305.464L310.964 22.5H314.696Z" fill="white"/>
<path d="M276 62.18H280.125L273.348 53.144L279.634 45.582H275.607L270.893 51.966H269.911V45.58H266.866V62.18H269.911V54.814H270.991L276 62.18Z" fill="white"/>
<path d="M197.527 53.045H203.715V60.411C203.224 60.706 202.635 61 202.242 61.295C201.771 61.5639 201.278 61.7937 200.769 61.982C200.291 62.1586 199.798 62.2901 199.296 62.375C198.744 62.4602 198.185 62.4937 197.626 62.475C196.766 62.4797 195.908 62.3806 195.072 62.18C194.333 61.9733 193.636 61.6412 193.01 61.198C192.401 60.7847 191.924 60.205 191.635 59.528C191.312 58.7841 191.145 57.982 191.144 57.171V50.882C191.145 50.071 191.312 49.2689 191.635 48.525C191.956 47.8682 192.427 47.2961 193.01 46.855C193.613 46.3737 194.319 46.0377 195.073 45.873C195.872 45.6391 196.696 45.507 197.528 45.48C198.562 45.4914 199.588 45.6569 200.573 45.971C201.529 46.302 202.401 46.8382 203.127 47.542L201.752 49.703C201.136 49.1964 200.439 48.7978 199.69 48.524C198.969 48.2511 198.202 48.1178 197.431 48.131C196.998 48.1419 196.569 48.2091 196.154 48.331C195.77 48.4344 195.405 48.6002 195.074 48.822C194.74 49.0438 194.469 49.3483 194.288 49.706C194.076 50.0613 193.973 50.4715 193.993 50.885V57.171C193.986 57.6144 194.087 58.0528 194.288 58.448C194.492 58.7892 194.759 59.0891 195.074 59.332C195.405 59.5538 195.77 59.7196 196.154 59.823C196.603 59.9445 197.064 60.0117 197.529 60.023C198.055 60.0418 198.581 60.0083 199.1 59.923C199.621 59.8129 200.12 59.6136 200.573 59.334V55.798H197.429V53.048L197.527 53.045Z" fill="white"/>
<path d="M215.107 50.98C215.105 50.5787 215.038 50.1804 214.907 49.801C214.709 49.4833 214.479 49.1871 214.22 48.917C213.889 48.6952 213.525 48.5294 213.14 48.426C212.72 48.3439 212.291 48.3104 211.863 48.326H209.41V59.526H211.669C212.13 59.5416 212.591 59.5081 213.044 59.426C213.429 59.3227 213.793 59.1568 214.124 58.935C214.458 58.7132 214.729 58.4087 214.91 58.051C215.122 57.6599 215.224 57.2185 215.205 56.774V50.98H215.107ZM211.864 45.58C212.724 45.5753 213.582 45.6744 214.418 45.875C215.149 46.0193 215.828 46.3586 216.382 46.857C216.963 47.276 217.407 47.8569 217.659 48.527C217.982 49.2709 218.149 50.073 218.15 50.884V56.68C218.16 57.492 217.992 58.2964 217.659 59.037C217.37 59.714 216.893 60.2937 216.284 60.707C215.658 61.1502 214.961 61.4823 214.222 61.689C213.386 61.8896 212.528 61.9886 211.668 61.984H206.464V45.58H211.864Z" fill="white"/>
<path d="M228.759 55.794L226.598 48.624L224.437 55.794H228.759ZM228.464 45.482L233.764 62.182H230.625L229.446 58.253H223.652L222.473 62.182H219.232L224.732 45.482H228.464Z" fill="white"/>
<path d="M246.829 45.58H249.579V62.18H245.358L238.581 49.116V62.18H235.929V45.58H239.858L246.829 59.035V45.58Z" fill="white"/>
<path d="M259.108 52.357C259.992 52.557 260.679 52.848 261.367 53.045C261.979 53.2681 262.545 53.6009 263.037 54.027C263.479 54.415 263.845 54.8811 264.117 55.402C264.361 56.029 264.494 56.6935 264.51 57.366C264.51 58.114 264.342 58.8525 264.019 59.527C263.703 60.1032 263.267 60.6053 262.742 61C262.146 61.4107 261.481 61.7102 260.778 61.884C260.009 62.0847 259.216 62.1839 258.421 62.179C257.762 62.161 257.106 62.0942 256.457 61.979C255.838 61.8873 255.239 61.688 254.689 61.39C254.131 61.121 253.604 60.7917 253.118 60.408C252.651 60.0575 252.251 59.6248 251.939 59.131L253.903 57.265C254.137 57.5835 254.4 57.8794 254.689 58.149C255.01 58.4337 255.375 58.6656 255.769 58.836C256.143 59.0411 256.539 59.2057 256.948 59.327C257.331 59.4413 257.727 59.5084 258.127 59.527C258.523 59.5426 258.919 59.509 259.306 59.427C259.685 59.3561 260.05 59.2233 260.386 59.034C260.691 58.8594 260.958 58.6259 261.172 58.347C261.372 58.059 261.475 57.7153 261.467 57.365C261.477 57.1679 261.447 56.9707 261.38 56.7852C261.312 56.5997 261.208 56.4296 261.074 56.285C260.788 56.0017 260.456 55.7693 260.092 55.598C259.699 55.398 259.208 55.303 258.815 55.107C258.373 55.0354 257.944 54.9031 257.538 54.714C256.824 54.5285 256.132 54.2649 255.476 53.928C254.918 53.659 254.391 53.3297 253.905 52.946C253.471 52.5741 253.134 52.1022 252.923 51.571C252.714 50.9716 252.614 50.3396 252.628 49.705C252.628 48.9887 252.796 48.2823 253.119 47.643C253.435 47.0668 253.87 46.5647 254.396 46.17C254.95 45.7687 255.588 45.4999 256.262 45.384C257.03 45.1771 257.823 45.0778 258.619 45.089C259.695 45.0757 260.764 45.2759 261.762 45.678C262.592 46.0557 263.382 46.5164 264.119 47.053L262.449 49.312C262.263 49.0951 262.027 48.9266 261.762 48.821C261.467 48.5997 261.134 48.4334 260.78 48.33C260.444 48.1407 260.079 48.0079 259.7 47.937C259.346 47.8551 258.983 47.8215 258.62 47.837C258.257 47.8168 257.893 47.8506 257.54 47.937C257.147 48.037 256.853 48.137 256.558 48.232C256.309 48.4035 256.078 48.6009 255.871 48.821C255.679 49.1125 255.576 49.4539 255.576 49.803C255.576 50.1521 255.679 50.4935 255.871 50.785C256.099 51.0884 256.405 51.3255 256.755 51.472C257.132 51.6706 257.527 51.835 257.934 51.963C258.311 52.1378 258.706 52.2697 259.113 52.356" fill="white"/>
<path d="M289.947 55.794L287.786 48.624L285.625 55.794H289.947ZM289.652 45.482L294.952 62.182H291.809L290.63 58.253H284.84L283.661 62.182H280.42L285.92 45.482H289.652Z" fill="white"/>
<path d="M243.491 42.438H246.437L244.178 46.465H242.411L243.491 42.438Z" fill="white"/>
<path d="M30.9459 11.9167L27.6069 14.8346L28.9819 17.1446L31.6339 14.7132H34.6789L35.6609 5.83702L28.8839 4.25613L28.1969 8.87623L30.4559 9.36275L30.7509 7.53922L33.1079 8.14707L32.7149 11.9167H30.9459Z" fill="white"/>
<path d="M112.366 14.712L115.018 17.1434L116.393 14.8333L113.152 11.9154H111.286L110.893 8.14583L113.348 7.53799L113.548 9.36151L115.807 8.87499L115.214 4.25613L108.339 5.83702L109.321 14.7132L112.366 14.712Z" fill="white"/>
<path d="M130.536 55.565H128.277V58.3615H135.741L137.9 62.1311L132.5 75.3836H124.643L126.313 71.25H129.554L133.09 62.3738H124.349V49.2427L114.429 40.0025L116.59 36.4767L114.724 34.7745L111.385 40.2463V43.4081L100.185 46.4473L96.748 45.2316V42.7978H94.491V61.1556L71.9 71.8578L49.313 61.1556V39.8799H47.054V42.3113L43.42 43.6483H32.52V40.1238L29.181 34.652L27.315 36.3542L29.476 39.8799L19.556 49.2427V62.3738H10.813L14.349 71.25H17.59L19.26 75.3836H11.4L6.1 62.2525L8.261 58.4828H15.725V55.6863H13.464V44.2574L17.785 40.2451V34.4093L22.3 30.1532L21.023 27.9645L27.8 21.6422L35.759 26.9877V37.4485L44.6 39.0294L45.973 34.0441H49.509V10.6998H94.688V36.962H98.224L99.697 42.3113L108.438 37.2047V26.9877L116.393 21.6384L123.17 27.9607L121.795 30.1495L126.313 34.4056V40.2414L130.634 44.2536V55.5612L130.536 55.565ZM44.4 21.5208L45.873 16.049H47.052V26.0196H44.5L37.92 32.0993V25.538L44.4 21.5208ZM47.15 31.3676H44.4L43.123 35.9877L38.507 35.2586L45.382 28.9363H47.15V31.3676ZM105.882 35.5012L100.873 38.4191L99.7 34.1679H96.95V28.8162H98.718L105.882 35.5012ZM98.123 16.0478L99.596 21.5196L105.98 25.4105V31.9718L99.4 25.8983H96.846V15.9277H98.123V16.0478ZM138.1 31.6127L136.723 33.9203L140.357 37.3247L143.5 32.2181V29.9105L137.116 24.0748L132.107 32.0993V36.4767L136.33 40.3677V45.9608L128.473 38.6655V32.8284L123.759 28.451L125.134 26.2623L118.455 20.0613L120.518 18.7243L126.411 24.1961L125.036 26.3848L129.259 30.3971L130.634 28.087L126.411 24.1961L127.786 22.0074L122.679 17.2659V13.9828L128.965 19.8186L127.59 22.0074L131.028 25.1691L132.403 22.8591L128.966 19.6973L130.341 17.5086L122.58 10.3346V7.17402L131.616 15.5637L130.241 17.7525L132.795 20.1838L134.17 17.8738L131.616 15.4424L132.991 13.2537L122.777 3.64705V0H120.518V3.03921L116.884 3.89093L117.277 6.6875L120.518 5.95834V15.6851L114.331 19.8186L111.483 17.1434L110.108 19.4534L112.072 21.277L108.34 23.8309L101.367 19.576L99.6 13.2524H96.75V7.90319H47.15V13.2524H44.3L42.532 19.5747L35.563 23.8309L31.83 21.2782L33.794 19.4547L32.42 17.1434L29.572 19.8186L23.384 15.6851V5.95834L26.625 6.6875L27.018 3.89093L23.384 3.04045V0H21.125V3.64705L10.911 13.3701L12.286 15.5588L9.732 17.9902L11.107 20.3027L13.661 17.8713L12.286 15.6851L21.322 7.29535V10.5784L13.563 17.7525L14.938 19.9412L11.5 23.1017L12.875 25.4118L16.313 22.25L14.938 20.0613L21.224 14.2255V17.5086L16.117 22.25L17.492 24.4387L13.269 28.3297L14.644 30.3971L18.867 26.3848L17.59 24.3174L23.483 18.8456L25.546 20.1826L18.867 26.3836L20.242 28.5723L15.528 32.9498V38.7855L7.67 46.0809V40.4877L11.893 36.5968V31.9767L6.884 23.9522L0.5 29.7892V32.0993L3.643 37.2059L7.277 33.8015L6 31.6127L4.134 33.315L2.857 31.1262L6.393 27.8431L9.536 32.9498V35.1385L5.313 39.0294V47.0539L7.179 50.0931L11.206 46.3235V55.6863H7.08L3.446 62.0086L9.929 78.3015H21.714V75.3836L18.964 68.451H15.723L14.446 65.2892H21.714V50.701L24.169 48.5123L33.5 54.3468V62.1287L31.339 66.0208L33.4 71.25H36.641L38.311 75.3836H30.455L26.428 65.2917L28.392 61.7659V55.565H24.071V58.3615H26.134V60.9155L23.777 65.049L29.077 78.1802H40.866V75.2623L38.116 68.3296H34.875L33.991 66.1409L35.857 62.8578V52.4032L26.33 46.3248L30.259 42.6777V46.2034H43.911L47.152 44.9878V62.739L72 74.5319L96.848 62.7377V48.027L100.286 49.2427L113.84 45.5956V42.9203L117.769 46.5674L108.242 52.6471V63.1029L110.108 66.386L109.224 68.5748H105.983L103.233 75.5074V78.4253H115.019L120.319 65.2941L117.964 61.1556V58.6042H120.026V55.8076H115.705V62.0086L117.669 65.5343L113.642 75.6262H105.785L107.455 71.4927H110.7L112.763 66.2647L110.5 62.3738V54.5944L119.83 48.7586L122.285 50.9473V65.5355H129.553L128.276 68.6973H125.035L122.285 75.6299V78.5478H134.071L140.553 62.2549L136.919 55.9326H132.794V46.5674L136.821 50.337L138.687 47.2978V39.2721L134.464 35.3811V33.1924L137.607 28.0858L141.143 31.3689L139.866 33.4363L138.1 31.6127Z" fill="white"/>
<path d="M63.75 25.777C63.6298 25.6462 63.4897 25.5465 63.3378 25.4838C63.186 25.4211 63.0256 25.3966 62.866 25.4118H60.509V29.1814H62.866C63.1396 29.1718 63.4081 29.0873 63.652 28.9338C63.7832 28.864 63.8925 28.7433 63.9634 28.5899C64.0343 28.4365 64.0629 28.2587 64.045 28.0833V26.7488C64.0951 26.5694 64.093 26.3741 64.0392 26.1964C63.9853 26.0188 63.8831 25.87 63.75 25.7757" fill="white"/>
<path d="M86.8309 26.2635V28.8174H78.4819V26.2635L78.0889 22.0086L80.1519 23.7108L79.6609 26.1422H82.1159L81.3299 23.7108L82.7049 20.9142L84.0799 23.7108L83.2939 26.1422H85.7499L85.2589 23.7108L87.3219 22.0086L86.8309 26.2635ZM86.2419 38.7868L83.5899 38.4216L83.9829 41.7047H81.4289L81.8219 38.4216L79.1699 38.7868V35.625L81.8219 36.1115L81.4289 32.8284H83.9829L83.5899 35.9902L86.2419 35.625V38.7868V38.7868ZM86.2419 51.5539L83.5899 51.0674L83.9829 54.3505H81.4289L81.8219 51.0674L79.1699 51.4326V48.2696L81.8219 48.7561L81.4289 45.5944H83.9829L83.5899 48.7561L86.2419 48.3909V51.5527V51.5539ZM72.7859 54.5969H71.3129V23.223H72.7859V54.5969ZM65.9109 28.2083C65.901 28.6642 65.8335 29.1153 65.7109 29.5453C65.5363 29.9229 65.3028 30.2537 65.0239 30.5184C64.7287 30.7924 64.3961 30.9983 64.0419 31.1262C63.6604 31.2776 63.2634 31.361 62.8629 31.3738H60.5089V35.7513H58.7409V23.7096H62.8699C63.2696 23.7326 63.6655 23.8157 64.0489 23.9572C64.4031 24.0851 64.7357 24.291 65.0309 24.565C65.3085 24.8002 65.5155 25.1422 65.6199 25.538C65.798 25.9909 65.8674 26.4974 65.8199 26.9976V28.2133L65.9109 28.2083ZM65.6159 51.674C65.3433 51.9223 65.0463 52.1266 64.7319 52.2819C64.4369 52.4057 64.1429 52.6471 63.8479 52.7684C63.5657 52.9084 63.2673 52.992 62.9639 53.016C62.6443 53.1235 62.3125 53.1653 61.9819 53.1398C61.4845 53.1339 60.9896 53.0507 60.5089 52.8922C60.0657 52.801 59.655 52.5469 59.3299 52.163C59.0158 51.8139 58.7502 51.4032 58.5439 50.9473C58.3428 50.4149 58.2419 49.8329 58.2489 49.2451V44.6226C58.2419 44.0348 58.3428 43.4528 58.5439 42.9203C58.7502 42.4645 59.0158 42.0537 59.3299 41.7047C59.6796 41.3665 60.0805 41.1185 60.5089 40.9755C60.9922 40.8334 61.4856 40.7505 61.9819 40.7279C62.5846 40.7099 63.1846 40.8338 63.7499 41.0931C64.3035 41.3098 64.8081 41.6847 65.2229 42.1875L64.5359 43.7684C64.1652 43.4396 63.7705 43.1545 63.3569 42.9166C62.9579 42.6808 62.522 42.5561 62.0799 42.5514C61.814 42.5324 61.5475 42.5744 61.2939 42.6752C61.0576 42.7746 60.8279 42.8967 60.6069 43.0404C60.4069 43.1642 60.3119 43.4056 60.1159 43.6483C59.9915 43.9064 59.9227 44.1996 59.9159 44.5V49.1201C59.9227 49.4205 59.9915 49.7137 60.1159 49.9718C60.2268 50.2306 60.3979 50.4423 60.6069 50.5797C60.8282 50.7234 61.0582 50.8455 61.2949 50.9449C61.8438 51.1076 62.416 51.1076 62.9649 50.9449C63.2764 50.8343 63.5739 50.6705 63.8489 50.4583V47.788H62.4699V46.2034H65.7109V51.6753L65.6159 51.674ZM51.6699 13.4963V59.0907L71.9999 68.8174L92.3299 59.0907V13.4963H51.6699Z" fill="white"/>
</svg>
